<?xml version="1.0" standalone="no"?>
<!DOCTYPE svg PUBLIC "-//W3C//DTD SVG 20010904//EN"
 "http://www.w3.org/TR/2001/REC-SVG-20010904/DTD/svg10.dtd">
<svg version="1.0" xmlns="http://www.w3.org/2000/svg"
 width="2667.000000pt" height="1611.000000pt" viewBox="0 0 2667.000000 1611.000000"
 preserveAspectRatio="xMidYMid meet">
<metadata>
Created by potrace 1.16, written by Peter Selinger 2001-2019
</metadata>
<g transform="translate(0.000000,1611.000000) scale(0.100000,-0.100000)"
fill="#000000" stroke="none">
<path d="M3570 9520 l0 -1360 290 0 290 0 0 558 c0 463 3 568 15 615 44 168
158 269 309 270 158 3 256 -91 285 -273 7 -40 11 -279 11 -617 l0 -553 285 0
285 0 0 633 c0 670 -4 738 -49 870 -54 155 -143 264 -265 321 -88 41 -141 54
-253 62 -243 17 -456 -78 -591 -265 l-32 -44 0 571 0 572 -290 0 -290 0 0
-1360z"/>
<path d="M1370 9451 l0 -1291 295 0 295 0 0 445 0 445 213 0 c315 0 488 36
674 141 101 57 244 197 301 294 82 140 120 316 108 500 -27 420 -235 646 -673
731 -75 15 -174 18 -650 21 l-563 5 0 -1291z m1025 805 c153 -55 227 -154 242
-323 11 -136 -28 -255 -110 -330 -88 -82 -160 -101 -394 -110 l-173 -6 0 397
0 398 193 -4 c151 -3 203 -8 242 -22z"/>
<path d="M12280 9450 l0 -1290 775 0 775 0 0 240 0 240 -480 0 -480 0 0 290 0
290 420 0 420 0 0 240 0 240 -420 0 -420 0 0 280 0 280 450 0 450 0 0 240 0
240 -745 0 -745 0 0 -1290z"/>
<path d="M15730 10505 l0 -35 50 0 50 0 0 -145 0 -145 45 0 45 0 0 145 0 145
50 0 50 0 0 35 0 35 -145 0 -145 0 0 -35z"/>
<path d="M16050 10360 l0 -180 40 0 40 0 1 123 0 122 43 -120 43 -120 35 -3
36 -3 40 113 41 113 0 -112 1 -113 45 0 45 0 0 180 0 181 -62 -3 -61 -3 -40
-112 -40 -113 -27 78 c-15 42 -32 94 -39 115 l-13 37 -64 0 -64 0 0 -180z"/>
<path d="M6485 10036 c-244 -36 -423 -123 -571 -278 -156 -162 -229 -351 -241
-624 -23 -505 220 -865 663 -980 136 -36 392 -45 543 -20 217 37 379 115 516
250 114 113 187 244 232 416 35 130 43 382 18 515 -71 381 -317 630 -701 710
-106 22 -345 28 -459 11z m258 -436 c227 -33 331 -195 330 -515 -2 -270 -71
-419 -229 -492 -68 -31 -179 -41 -266 -23 -216 42 -320 208 -320 510 1 189 35
304 120 401 65 73 158 114 287 128 6 0 41 -4 78 -9z"/>
<path d="M9064 10040 c-87 -13 -182 -50 -257 -100 -77 -52 -113 -86 -171 -163
l-36 -49 0 136 0 136 -290 0 -290 0 0 -920 0 -920 290 0 289 0 3 588 3 588 38
76 c64 130 159 192 292 191 119 -1 212 -66 254 -178 36 -95 41 -190 41 -736
l0 -529 285 0 285 0 0 618 c0 610 -4 716 -35 838 -25 96 -90 218 -150 279
-117 120 -333 177 -551 145z"/>
<path d="M10900 10039 c-286 -44 -533 -225 -661 -484 -81 -164 -118 -366 -105
-575 27 -448 245 -731 639 -831 118 -30 409 -38 565 -15 126 19 258 54 345 93
l57 26 0 208 c0 115 -2 209 -4 209 -3 0 -37 -16 -76 -36 -147 -73 -282 -104
-460 -104 -176 0 -320 48 -395 131 -53 59 -80 120 -99 227 l-5 32 599 0 600 0
0 153 c0 263 -31 424 -113 582 -61 118 -192 247 -307 303 -119 58 -227 82
-385 87 -71 2 -159 -1 -195 -6z m290 -410 c96 -41 157 -146 167 -286 l6 -73
-332 0 c-267 0 -331 3 -331 13 0 7 7 38 16 68 45 150 137 256 257 295 56 18
153 11 217 -17z"/>
<path d="M13997 9988 c36 -45 567 -896 567 -908 0 -8 -134 -212 -297 -452
-164 -241 -300 -445 -303 -453 -5 -13 33 -15 323 -15 l329 0 139 261 c77 144
154 292 170 329 l31 68 32 -71 c18 -39 94 -187 170 -329 l137 -257 333 -1 334
0 -19 33 c-11 17 -147 231 -302 475 l-282 444 49 71 c107 157 520 764 537 790
l17 27 -314 0 -314 0 -150 -287 c-83 -159 -160 -310 -172 -338 -20 -46 -22
-48 -28 -25 -4 14 -77 165 -163 335 l-157 310 -338 3 c-272 2 -337 0 -329 -10z"/>
<path d="M3180 7095 l0 -435 95 0 95 0 0 27 c0 24 1 25 18 11 37 -33 82 -48
144 -48 142 1 237 95 257 256 22 184 -37 315 -158 351 -87 25 -177 6 -238 -50
l-23 -20 0 171 0 172 -95 0 -95 0 0 -435z m359 10 c34 -17 61 -78 61 -137 0
-103 -48 -168 -125 -168 -37 0 -47 5 -74 35 -30 34 -31 40 -31 122 l0 85 39
39 c43 43 80 50 130 24z"/>
<path d="M3918 7500 c-27 -28 -30 -36 -25 -73 8 -59 43 -87 107 -87 70 0 105
31 105 95 0 64 -34 95 -106 95 -43 0 -55 -5 -81 -30z"/>
<path d="M4240 7095 l0 -435 95 0 95 0 0 435 0 435 -95 0 -95 0 0 -435z"/>
<path d="M6889 7486 c-203 -57 -325 -246 -305 -474 17 -181 110 -301 270 -347
71 -21 267 -16 331 7 l40 15 3 91 c1 51 0 92 -3 92 -3 0 -25 -10 -48 -22 -52
-26 -176 -36 -233 -18 -100 32 -154 116 -154 239 0 126 61 220 159 250 64 19
159 13 224 -13 l58 -24 -3 96 -3 97 -50 11 c-67 16 -229 15 -286 0z"/>
<path d="M1370 7075 l0 -415 85 0 85 0 1 298 c0 163 3 290 6 282 3 -8 47 -134
98 -280 52 -146 97 -273 101 -283 6 -15 17 -17 87 -15 l80 3 103 300 103 300
0 -302 1 -303 95 0 95 0 0 415 0 415 -138 0 -137 0 -89 -262 c-49 -145 -94
-274 -99 -288 -9 -23 -11 -21 -26 31 -9 31 -52 161 -96 288 l-80 231 -137 0
-138 0 0 -415z"/>
<path d="M5540 7075 l0 -415 250 0 250 0 0 80 0 80 -155 0 -155 0 0 90 0 90
135 0 135 0 0 80 0 80 -135 0 -135 0 0 85 0 85 145 0 145 0 0 80 0 80 -240 0
-240 0 0 -415z"/>
<path d="M12820 7075 l0 -417 208 4 c231 6 266 13 362 78 30 20 72 61 93 91
54 76 72 144 71 264 -2 200 -77 313 -243 367 -56 18 -97 22 -278 26 l-213 4 0
-417z m371 239 c70 -21 132 -81 149 -144 7 -26 10 -76 8 -117 -6 -92 -41 -154
-111 -197 -41 -25 -61 -30 -133 -34 l-84 -5 0 257 0 256 58 0 c32 0 83 -7 113
-16z"/>
<path d="M16060 7076 l0 -416 183 0 c271 0 353 28 410 139 62 124 14 253 -111
296 l-35 12 42 23 c82 47 119 141 87 224 -20 53 -47 78 -111 108 -45 20 -69
22 -257 26 l-208 4 0 -416z m339 249 c31 -16 41 -33 41 -71 0 -60 -48 -94
-135 -94 l-55 0 0 90 0 90 60 0 c34 0 74 -7 89 -15z m31 -337 c41 -28 54 -69
35 -114 -19 -46 -60 -64 -145 -64 l-70 0 0 100 0 100 74 0 c59 0 79 -4 106
-22z"/>
<path d="M17615 7425 c-5 -2 -43 -13 -82 -25 l-73 -21 0 -64 0 -65 -45 0 -45
0 0 -70 0 -70 44 0 44 0 4 -172 c3 -151 6 -177 23 -207 35 -60 67 -76 158 -79
45 -2 94 1 110 7 26 10 27 13 27 79 l0 69 -49 -5 c-73 -7 -81 9 -81 175 l0
133 65 0 65 0 0 70 0 70 -65 0 -65 0 0 90 c0 89 -3 96 -35 85z"/>
<path d="M18050 7420 c-14 -5 -51 -16 -82 -25 l-58 -16 0 -65 0 -64 -45 0 -45
0 0 -70 0 -70 44 0 44 0 3 -167 c5 -199 16 -233 89 -270 45 -24 130 -30 199
-17 l31 7 0 72 0 72 -50 -5 c-49 -4 -50 -4 -65 31 -11 26 -15 72 -15 157 l0
120 65 0 65 0 0 70 0 70 -65 0 -65 0 0 90 c0 95 -1 97 -50 80z"/>
<path d="M2663 7260 c-61 -13 -115 -44 -156 -89 -57 -63 -70 -103 -71 -211 -1
-80 3 -103 23 -148 47 -105 148 -162 285 -162 197 0 313 103 324 289 11 197
-94 318 -285 326 -43 2 -97 0 -120 -5z m172 -170 c58 -54 55 -207 -4 -264 -53
-50 -152 -33 -184 32 -40 78 -26 183 30 233 33 28 41 31 85 27 32 -4 57 -13
73 -28z"/>
<path d="M4753 7260 c-48 -11 -118 -56 -152 -97 -44 -54 -65 -123 -64 -218 2
-132 42 -209 135 -261 51 -28 58 -29 178 -29 95 0 134 5 163 17 l37 17 0 70
c0 39 -2 71 -5 71 -4 0 -20 -7 -36 -16 -74 -38 -201 -34 -245 7 -13 12 -27 34
-33 50 l-10 29 190 0 189 0 0 78 c0 100 -21 163 -74 217 -61 64 -170 90 -273
65z m140 -149 c10 -10 22 -34 27 -54 l8 -37 -104 0 -104 0 15 36 c8 20 15 38
15 40 0 3 15 13 33 25 37 23 81 19 110 -10z"/>
<path d="M7543 7260 c-104 -22 -191 -100 -219 -196 -22 -77 -15 -191 16 -257
30 -64 100 -123 168 -143 87 -26 215 -16 288 22 108 55 160 160 152 303 -8
124 -62 207 -165 253 -49 22 -178 31 -240 18z m172 -170 c36 -33 52 -115 36
-185 -16 -73 -53 -105 -121 -105 -67 0 -105 32 -121 104 -12 56 -1 134 24 166
43 56 133 66 182 20z"/>
<path d="M8357 7256 c-37 -14 -69 -36 -94 -65 -11 -12 -13 -9 -13 22 l0 37
-95 0 -95 0 0 -295 0 -295 95 0 95 0 0 186 c0 147 3 193 15 219 28 58 95 72
136 29 24 -25 24 -29 27 -230 l3 -204 94 0 94 0 3 194 c3 179 5 197 24 223 41
55 111 56 139 3 12 -23 15 -69 15 -225 l0 -195 95 0 95 0 0 223 c0 122 -5 239
-10 259 -24 86 -105 135 -206 125 -60 -6 -137 -45 -154 -77 -10 -18 -13 -17
-45 19 -52 58 -136 76 -218 47z"/>
<path d="M9427 7256 c-20 -8 -53 -26 -72 -40 l-35 -27 0 30 0 31 -95 0 -95 0
0 -295 0 -295 95 0 95 0 0 191 c0 120 4 198 11 212 30 58 90 73 136 33 l28
-24 3 -206 3 -206 95 0 94 0 0 180 c0 194 8 233 51 264 27 19 67 20 90 3 35
-27 39 -54 39 -251 l0 -196 95 0 95 0 0 224 c0 289 -14 333 -117 372 -79 30
-203 1 -251 -60 l-19 -25 -23 30 c-44 60 -141 84 -223 55z"/>
<path d="M10369 7257 c-79 -22 -144 -80 -181 -162 -33 -73 -33 -218 1 -293 29
-65 89 -118 155 -137 67 -20 207 -18 276 3 l55 18 3 72 c2 40 1 72 -1 72 -3 0
-25 -9 -51 -20 -59 -27 -170 -29 -216 -5 -26 13 -60 64 -60 90 0 3 86 5 190 5
l190 0 0 68 c0 130 -50 231 -133 271 -57 27 -165 36 -228 18z m126 -129 c29
-13 55 -55 55 -88 0 -19 -6 -20 -100 -20 -112 0 -116 3 -77 61 22 32 59 59 84
59 7 0 24 -5 38 -12z"/>
<path d="M11480 7254 c-90 -24 -146 -68 -188 -149 -24 -45 -27 -61 -27 -155 0
-117 14 -158 76 -219 63 -63 101 -76 229 -76 67 0 127 6 143 13 26 11 27 14
27 92 l0 80 -42 -21 c-58 -30 -156 -24 -194 11 -55 51 -69 132 -35 207 35 76
142 106 226 63 22 -11 41 -20 42 -20 2 0 3 38 3 84 l0 84 -50 11 c-68 15 -143
13 -210 -5z"/>
<path d="M12022 7256 c-130 -43 -202 -152 -202 -306 0 -142 58 -239 168 -281
49 -18 72 -20 162 -16 68 3 120 10 148 22 l42 17 0 69 c0 38 -1 69 -2 69 -2 0
-28 -9 -58 -21 -67 -25 -164 -28 -208 -5 -29 15 -62 60 -62 86 0 6 64 10 191
10 l192 0 -5 78 c-3 42 -12 96 -18 120 -17 53 -70 117 -122 143 -53 27 -167
34 -226 15z m137 -131 c16 -8 34 -28 40 -46 20 -59 20 -59 -90 -59 l-101 0 7
28 c11 45 61 89 103 91 7 1 26 -6 41 -14z"/>
<path d="M13863 7260 c-63 -13 -117 -45 -160 -94 -50 -57 -68 -117 -67 -221 1
-128 46 -209 149 -263 46 -25 60 -27 165 -27 101 0 120 3 160 24 105 55 151
131 158 262 7 148 -47 250 -159 299 -59 25 -177 35 -246 20z m172 -170 c32
-30 49 -91 42 -155 -10 -97 -46 -137 -123 -137 -84 0 -125 52 -126 156 0 70
17 113 59 146 37 29 112 24 148 -10z"/>
<path d="M14677 7256 c-38 -14 -69 -36 -94 -66 -10 -12 -12 -9 -13 23 l0 37
-95 0 -95 0 0 -295 0 -295 95 0 95 0 0 185 c0 146 3 192 15 215 32 62 93 78
142 36 l28 -24 3 -206 3 -206 95 0 94 0 0 216 c0 128 -5 234 -11 260 -27 107
-146 161 -262 120z"/>
<path d="M15275 7261 c-91 -25 -160 -83 -196 -164 -19 -42 -23 -70 -24 -147 0
-84 3 -101 28 -152 34 -69 84 -113 151 -133 67 -20 207 -18 276 3 l55 18 3 72
c2 40 1 72 -1 72 -3 0 -25 -9 -51 -20 -58 -26 -160 -29 -209 -5 -30 14 -67 64
-67 89 0 3 86 6 190 6 l190 0 0 68 c0 130 -50 231 -133 271 -50 24 -162 36
-212 22z m138 -149 c10 -10 20 -35 24 -55 l6 -37 -102 0 c-55 0 -101 2 -101 5
0 3 6 21 14 40 29 68 113 93 159 47z"/>
<path d="M16975 7261 c-91 -25 -160 -83 -196 -164 -19 -42 -23 -70 -24 -147 0
-84 3 -101 28 -152 34 -69 84 -113 151 -133 67 -20 207 -18 276 3 l55 18 3 72
c2 40 1 72 -1 72 -3 0 -25 -9 -51 -20 -50 -23 -153 -29 -196 -12 -30 12 -65
49 -75 80 l-6 22 190 0 191 0 0 68 c0 130 -50 231 -133 271 -50 24 -162 36
-212 22z m138 -149 c10 -10 20 -35 24 -55 l6 -37 -102 0 c-55 0 -101 2 -101 5
0 3 6 21 14 40 29 68 113 93 159 47z"/>
<path d="M18506 7259 c-140 -35 -226 -173 -213 -342 9 -130 74 -221 181 -252
67 -20 207 -18 276 3 l55 18 3 72 c2 40 1 72 -1 72 -3 0 -25 -9 -51 -21 -59
-26 -168 -29 -214 -5 -29 15 -62 60 -62 86 0 6 64 10 190 10 l190 0 0 63 c0
185 -88 293 -247 302 -38 2 -86 0 -107 -6z m119 -131 c29 -13 55 -55 55 -88 0
-19 -6 -20 -100 -20 -112 0 -116 3 -77 61 22 32 59 59 84 59 7 0 24 -5 38 -12z"/>
<path d="M11094 7250 c-11 -4 -33 -22 -47 -40 l-27 -32 0 36 0 36 -95 0 -95 0
0 -295 0 -295 95 0 95 0 0 173 c0 153 2 176 20 204 36 60 91 77 163 48 15 -6
17 1 17 84 l0 91 -52 -1 c-29 0 -62 -4 -74 -9z"/>
<path d="M19224 7250 c-11 -4 -33 -22 -47 -40 l-27 -32 0 36 0 36 -95 0 -95 0
0 -295 0 -295 94 0 95 0 3 186 3 186 39 35 c34 31 43 35 80 30 22 -3 49 -8 59
-12 15 -6 17 1 17 84 l0 91 -52 -1 c-29 0 -62 -4 -74 -9z"/>
<path d="M3900 6955 l0 -295 95 0 95 0 0 295 0 295 -95 0 -95 0 0 -295z"/>
<path d="M6150 6980 l0 -70 160 0 160 0 0 70 0 70 -160 0 -160 0 0 -70z"/>
</g>
</svg>
